<svg xmlns="http://www.w3.org/2000/svg" width="500" height="300">


<line x1="5" y1="5" x2="90" y2="90" stroke="red"/>

<line x1="105" y1="5" x2="190" y2="90" stroke="red" stroke-width="2"/>

<line x1="105" y1="5" x2="190" y2="90" stroke="green" stroke-width="3"/>

<line x1="205" y1="5" x2="290" y2="90" stroke="#FF00FF" stroke-width="5"/>

<line x1="305" y1="5" x2="390" y2="90" stroke="blue" stroke-width="1"/>

<line x1="405" y1="5" x2="490" y2="90" stroke="yellow" stroke-width="10"/>


<line x1="5" y1="105" x2="90" y2="190" stroke="black" stroke-width="10"/>

<line x1="105" y1="105" x2="190" y2="190" stroke="black" stroke-width="10" stroke-linecap="inherit"/>

<line x1="205" y1="105" x2="290" y2="190" stroke="black" stroke-width="10" stroke-linecap="butt"/>

<line x1="305" y1="105" x2="390" y2="190" stroke="black" stroke-width="10" stroke-linecap="round"/>

<line x1="405" y1="105" x2="490" y2="190" stroke="black" stroke-width="10" stroke-linecap="square"/>


<line x1="5" y1="205" x2="90" y2="290" stroke="blue" stroke-width="4" stroke-dasharray="1"/>

<line x1="105" y1="205" x2="190" y2="290" stroke="blue" stroke-width="4" stroke-dasharray="4"/>

<line x1="205" y1="205" x2="290" y2="290" stroke="blue" stroke-width="4" stroke-dasharray="8"/>

<line x1="305" y1="205" x2="390" y2="290" stroke="blue" stroke-width="4" stroke-dasharray="8,2"/>

<line x1="405" y1="205" x2="490" y2="290" stroke="blue" stroke-width="4" stroke-dasharray="5,1,8,3"/>


</svg>
