<svg xmlns="http://www.w3.org/2000/svg" width="309" height="216">


<linearGradient id="letterGradient">
  <stop offset="0" stop-color="#F50300"/>
  <stop offset="0.5" stop-color="orange"/>
  <stop offset="1" stop-color="#088000"/>
</linearGradient>

<path stroke="black" stroke-width="3" fill="url(#letterGradient)"
d="M 20 17 L 97,17 97,22 Q 77,22 84,42 L 123,139 152,72 137,36 Q 131,22 115,22 L 115,17 201,17 201,22 Q 179,22 185,42 L 221,135 257,40 Q 264,21 239,22 L 239,17 286,17 286,22 Q 275,22 271,32 L 207,200 201,200 157,85 108,200 103,200 36,33 Q 31,22 20,22 z"/>

</svg>
