<svg xmlns="http://www.w3.org/2000/svg" xmlns:xlink="http://www.w3.org/1999/xlink" width="479" height="216">


<linearGradient id="background">
  <stop offset="0" stop-color="#FF5E5C"/>
  <stop offset="0.25" stop-color="#F8C154"/>
  <stop offset="0.5" stop-color="#57AA54"/>
  <stop offset="0.75" stop-color="#F8C154"/>
  <stop offset="1" stop-color="#FF5E5C"/>
</linearGradient>

<linearGradient id="redToGreen">
  <stop offset="0" stop-color="#F50300"/>
  <stop offset="0.5" stop-color="orange"/>
  <stop offset="1" stop-color="#088000"/>
</linearGradient>

<linearGradient id="greenToRed">
  <stop offset="0" stop-color="#088000"/>
  <stop offset="0.5" stop-color="orange"/>
  <stop offset="1" stop-color="#F50300"/>
</linearGradient>

<radialGradient id="centralGreenToRed">
  <stop offset="0.4" stop-color="#088000"/>
  <stop offset="0.8" stop-color="orange"/>
  <stop offset="1" stop-color="#F50300"/>
</radialGradient>

<defs>
<path id="wLetter" stroke="black" stroke-width="3" fill="inherit"
d="M 20 17 L 97,17 97,22 Q 77,22 84,42 L 123,139 152,72 137,36 Q 131,22 115,22 L 115,17 201,17 201,22 Q 179,22 185,42 L 221,135 257,40 Q 264,21 239,22 L 239,17 286,17 286,22 Q 275,22 271,32 L 207,200 201,200 157,85 108,200 103,200 36,33 Q 31,22 20,22 z"/>
</defs>

<rect x="8" y="6" width="464" height="203" stroke="black" stroke-width="3" fill="url(#background)"/>

<use xlink:href="#wLetter" transform="rotate(15,20,17) scale(0.9) translate(-12,-7)" fill="url(#greenToRed)"/>

<use xlink:href="#wLetter" transform="rotate(-15,286,17) scale(0.9) translate(233,43)" fill="url(#redToGreen)"/>

<path stroke="black" stroke-width="3" fill="url(#centralGreenToRed)" fill-rule="evenodd"
d="M 161,168 Q 161,129 240,128 Q 321,129 321,168 Q 321,208 240,208 Q 161,208 161,168 M 202 168 Q 202,153 241,153 Q 282,152 282,168 Q 282,184 241,184 Q 202,184 202,168"/>

</svg>
